<?xml version="1.0" encoding="UTF-8"?>
<svg width="483px" height="111px" viewBox="0 0 483 111" version="1.1" xmlns="http://www.w3.org/2000/svg" xmlns:xlink="http://www.w3.org/1999/xlink">
    <!-- Generator: Sketch 51.3 (57544) - http://www.bohemiancoding.com/sketch -->
    <title>Artboard 3</title>
    <desc>Created with Sketch.</desc>
    <defs></defs>
    <g id="Artboard-3" stroke="none" stroke-width="1" fill="none" fill-rule="evenodd" opacity="0.95">
        <g id="Group-59" transform="translate(4.000000, 4.000000)">
            <path d="M120.2508,29.2053 C122.9898,22.8723 127.6938,20.0883 134.1668,20.0683 C136.7268,20.0603 139.2868,20.0273 141.8458,20.0753 C147.4008,20.1793 151.7868,23.8183 152.8138,29.2873 C153.0828,30.7153 153.4758,31.4933 155.1068,31.6673 C158.0048,31.9763 160.6928,33.0713 163.0148,34.8563 C163.9338,35.5623 164.5598,35.5273 165.5428,34.9723 C174.2968,30.0343 183.2718,29.6203 192.4078,33.8793 C193.1138,34.2083 193.6558,34.3423 194.3788,33.8923 C197.2708,32.0873 200.5058,31.6753 203.8288,31.7663 C207.1778,31.8583 210.5318,31.5243 213.8838,32.1073 C214.9028,32.2853 216.0568,31.7533 217.1378,31.4983 C219.5078,30.9393 221.9048,30.7123 224.2448,31.4553 C225.5468,31.8693 226.2668,31.4383 227.1158,30.5273 C234.7108,22.3743 244.0858,20.2813 254.7008,22.5863 C255.4738,22.7543 256.1718,23.0203 257.0218,22.8983 C263.4098,21.9823 268.9718,24.7273 272.0028,30.4063 C272.6108,31.5463 273.2848,31.8173 274.4278,31.7733 C278.1358,31.6293 281.8258,32.3243 285.5658,31.2583 C288.3418,30.4673 291.3328,30.9213 294.0218,32.1203 C295.7508,32.8913 297.3218,32.7073 299.0728,32.3093 C306.4428,30.6353 313.9248,29.8613 320.8518,33.5423 C323.9678,35.1983 326.1698,35.4683 329.2888,33.6333 C333.3408,31.2483 338.0568,30.6943 342.7648,31.1713 C344.1888,31.3163 344.6568,30.8733 345.0948,29.6093 C347.2038,23.5393 351.6518,20.3003 358.0458,20.1063 C360.7628,20.0233 363.4848,20.0603 366.2048,20.0813 C372.1538,20.1273 376.5468,23.7403 377.6638,29.6203 C377.8808,30.7713 378.1068,31.3933 379.4428,31.6073 C386.7528,32.7803 391.9808,36.7953 395.3048,43.7963 C396.1158,41.1473 396.6238,38.3983 398.6078,36.7913 C401.2278,34.6703 402.0158,32.1633 402.4128,28.9403 C403.0198,24.0013 407.6468,20.3173 412.6528,20.1123 C415.2888,20.0043 417.9318,20.0493 420.5708,20.0833 C427.0698,20.1663 431.8608,24.9523 432.0078,31.4843 C432.0348,32.6663 432.0118,33.8503 432.0118,35.2453 C439.6508,30.8643 447.4778,29.7763 455.6878,32.4843 C467.5368,36.3923 475.3008,47.6403 474.1708,59.1723 C472.9588,71.5413 463.6408,80.8823 450.9378,82.6233 C446.3008,83.2583 441.8548,82.7173 437.5038,81.1313 C436.4918,80.7623 435.5998,80.6473 434.5378,81.0623 C432.6608,81.7953 430.6518,81.9823 428.6418,81.9343 C420.4928,81.7353 412.3098,81.6263 404.1988,81.8373 C399.4078,81.9613 394.7678,82.2473 389.9138,81.8013 C384.5838,81.3113 379.0968,82.4663 373.7458,80.9903 C372.7458,80.7143 371.9118,81.4233 370.9718,81.5223 C365.4728,82.1013 359.9628,82.5683 354.5688,80.9203 C353.4978,80.5923 352.7078,80.8953 351.8308,81.1903 C345.6758,83.2553 339.4928,83.4233 333.1708,81.8953 C331.0878,81.3933 328.8188,81.4083 326.6598,81.5523 C324.5898,81.6893 322.5318,81.9483 320.4468,81.9493 C316.6298,81.9503 312.8188,81.7473 309.0218,82.5733 C304.5048,83.5563 300.1068,82.7523 295.8958,80.9773 C294.7868,80.5103 293.8908,80.4363 292.7448,80.9413 C290.9048,81.7523 288.8828,81.9313 286.8718,81.9343 C280.7128,81.9443 274.5548,81.9403 268.3958,81.9353 C267.8368,81.9353 267.2268,82.0213 266.7278,81.8333 C262.7208,80.3243 258.8908,81.3673 254.8888,82.1523 C246.8818,83.7233 239.1248,82.7303 232.1158,78.1603 C231.3638,77.6693 230.9928,77.6463 230.3318,78.2723 C227.4358,81.0163 223.8538,81.9203 219.9738,81.9213 C213.8148,81.9243 207.5948,82.4583 201.5158,81.7623 C196.1698,81.1503 191.0938,81.7173 185.9078,82.5073 C180.2868,83.3633 174.7418,82.9093 169.3828,80.8753 C168.9218,80.7003 168.5038,80.5833 168.0018,80.7323 C161.7948,82.5713 155.5508,82.2993 149.2908,81.0343 C148.9188,80.9593 148.5078,80.8863 148.1478,80.9643 C141.8118,82.3473 135.4948,82.5693 129.2088,80.6923 C128.5178,80.4863 127.9678,80.8673 127.3668,81.0413 C119.9808,83.1863 112.6138,83.8483 105.2928,80.7763 C104.7518,80.5503 104.2368,80.4413 103.6868,80.7273 C101.2408,82.0003 98.5898,81.8963 95.9488,81.8933 C87.4698,81.8823 78.9918,81.8773 70.5138,81.8953 C66.9248,81.9023 63.4618,81.4043 60.5328,79.1583 C59.3648,78.2623 59.0838,79.0663 58.5748,79.7893 C54.7118,85.2763 50.6568,90.6383 47.0058,96.2623 C41.9388,104.0653 30.2988,105.1563 24.3438,96.2383 C17.6928,86.2753 10.5968,76.6083 3.6288,66.8583 C1.2448,63.5223 0.3078,59.9903 1.5048,56.0133 C1.7958,55.0433 1.7348,54.1453 1.3968,53.2263 C0.0778,49.6453 0.7468,46.2503 2.6158,43.1033 C9.8308,30.9593 17.0478,18.8153 24.3998,6.7543 C29.6768,-1.9017 41.1438,-2.0447 46.6508,6.5043 C50.5388,12.5383 54.1038,18.7823 57.7478,24.9703 C58.4488,26.1613 58.8468,26.5843 60.1368,25.4933 C62.6748,23.3463 65.7998,22.5923 69.0778,22.5823 C78.5158,22.5533 87.9608,22.3593 97.3878,22.6833 C100.5598,22.7923 103.5648,22.6033 106.6968,22.2303 C111.7838,21.6243 116.0148,23.8723 119.2438,27.8793 C119.5348,28.2403 119.8058,28.6173 120.2508,29.2053" id="Fill-3-Copy" stroke="#FFFFFF" stroke-width="8" fill="#FFFFFF"></path>
            <path d="M120.2508,29.2053 C122.9898,22.8723 127.6938,20.0883 134.1668,20.0683 C136.7268,20.0603 139.2868,20.0273 141.8458,20.0753 C147.4008,20.1793 151.7868,23.8183 152.8138,29.2873 C153.0828,30.7153 153.4758,31.4933 155.1068,31.6673 C158.0048,31.9763 160.6928,33.0713 163.0148,34.8563 C163.9338,35.5623 164.5598,35.5273 165.5428,34.9723 C174.2968,30.0343 183.2718,29.6203 192.4078,33.8793 C193.1138,34.2083 193.6558,34.3423 194.3788,33.8923 C197.2708,32.0873 200.5058,31.6753 203.8288,31.7663 C207.1778,31.8583 210.5318,31.5243 213.8838,32.1073 C214.9028,32.2853 216.0568,31.7533 217.1378,31.4983 C219.5078,30.9393 221.9048,30.7123 224.2448,31.4553 C225.5468,31.8693 226.2668,31.4383 227.1158,30.5273 C234.7108,22.3743 244.0858,20.2813 254.7008,22.5863 C255.4738,22.7543 256.1718,23.0203 257.0218,22.8983 C263.4098,21.9823 268.9718,24.7273 272.0028,30.4063 C272.6108,31.5463 273.2848,31.8173 274.4278,31.7733 C278.1358,31.6293 281.8258,32.3243 285.5658,31.2583 C288.3418,30.4673 291.3328,30.9213 294.0218,32.1203 C295.7508,32.8913 297.3218,32.7073 299.0728,32.3093 C306.4428,30.6353 313.9248,29.8613 320.8518,33.5423 C323.9678,35.1983 326.1698,35.4683 329.2888,33.6333 C333.3408,31.2483 338.0568,30.6943 342.7648,31.1713 C344.1888,31.3163 344.6568,30.8733 345.0948,29.6093 C347.2038,23.5393 351.6518,20.3003 358.0458,20.1063 C360.7628,20.0233 363.4848,20.0603 366.2048,20.0813 C372.1538,20.1273 376.5468,23.7403 377.6638,29.6203 C377.8808,30.7713 378.1068,31.3933 379.4428,31.6073 C386.7528,32.7803 391.9808,36.7953 395.3048,43.7963 C396.1158,41.1473 396.6238,38.3983 398.6078,36.7913 C401.2278,34.6703 402.0158,32.1633 402.4128,28.9403 C403.0198,24.0013 407.6468,20.3173 412.6528,20.1123 C415.2888,20.0043 417.9318,20.0493 420.5708,20.0833 C427.0698,20.1663 431.8608,24.9523 432.0078,31.4843 C432.0348,32.6663 432.0118,33.8503 432.0118,35.2453 C439.6508,30.8643 447.4778,29.7763 455.6878,32.4843 C467.5368,36.3923 475.3008,47.6403 474.1708,59.1723 C472.9588,71.5413 463.6408,80.8823 450.9378,82.6233 C446.3008,83.2583 441.8548,82.7173 437.5038,81.1313 C436.4918,80.7623 435.5998,80.6473 434.5378,81.0623 C432.6608,81.7953 430.6518,81.9823 428.6418,81.9343 C420.4928,81.7353 412.3098,81.6263 404.1988,81.8373 C399.4078,81.9613 394.7678,82.2473 389.9138,81.8013 C384.5838,81.3113 379.0968,82.4663 373.7458,80.9903 C372.7458,80.7143 371.9118,81.4233 370.9718,81.5223 C365.4728,82.1013 359.9628,82.5683 354.5688,80.9203 C353.4978,80.5923 352.7078,80.8953 351.8308,81.1903 C345.6758,83.2553 339.4928,83.4233 333.1708,81.8953 C331.0878,81.3933 328.8188,81.4083 326.6598,81.5523 C324.5898,81.6893 322.5318,81.9483 320.4468,81.9493 C316.6298,81.9503 312.8188,81.7473 309.0218,82.5733 C304.5048,83.5563 300.1068,82.7523 295.8958,80.9773 C294.7868,80.5103 293.8908,80.4363 292.7448,80.9413 C290.9048,81.7523 288.8828,81.9313 286.8718,81.9343 C280.7128,81.9443 274.5548,81.9403 268.3958,81.9353 C267.8368,81.9353 267.2268,82.0213 266.7278,81.8333 C262.7208,80.3243 258.8908,81.3673 254.8888,82.1523 C246.8818,83.7233 239.1248,82.7303 232.1158,78.1603 C231.3638,77.6693 230.9928,77.6463 230.3318,78.2723 C227.4358,81.0163 223.8538,81.9203 219.9738,81.9213 C213.8148,81.9243 207.5948,82.4583 201.5158,81.7623 C196.1698,81.1503 191.0938,81.7173 185.9078,82.5073 C180.2868,83.3633 174.7418,82.9093 169.3828,80.8753 C168.9218,80.7003 168.5038,80.5833 168.0018,80.7323 C161.7948,82.5713 155.5508,82.2993 149.2908,81.0343 C148.9188,80.9593 148.5078,80.8863 148.1478,80.9643 C141.8118,82.3473 135.4948,82.5693 129.2088,80.6923 C128.5178,80.4863 127.9678,80.8673 127.3668,81.0413 C119.9808,83.1863 112.6138,83.8483 105.2928,80.7763 C104.7518,80.5503 104.2368,80.4413 103.6868,80.7273 C101.2408,82.0003 98.5898,81.8963 95.9488,81.8933 C87.4698,81.8823 78.9918,81.8773 70.5138,81.8953 C66.9248,81.9023 63.4618,81.4043 60.5328,79.1583 C59.3648,78.2623 59.0838,79.0663 58.5748,79.7893 C54.7118,85.2763 50.6568,90.6383 47.0058,96.2623 C41.9388,104.0653 30.2988,105.1563 24.3438,96.2383 C17.6928,86.2753 10.5968,76.6083 3.6288,66.8583 C1.2448,63.5223 0.3078,59.9903 1.5048,56.0133 C1.7958,55.0433 1.7348,54.1453 1.3968,53.2263 C0.0778,49.6453 0.7468,46.2503 2.6158,43.1033 C9.8308,30.9593 17.0478,18.8153 24.3998,6.7543 C29.6768,-1.9017 41.1438,-2.0447 46.6508,6.5043 C50.5388,12.5383 54.1038,18.7823 57.7478,24.9703 C58.4488,26.1613 58.8468,26.5843 60.1368,25.4933 C62.6748,23.3463 65.7998,22.5923 69.0778,22.5823 C78.5158,22.5533 87.9608,22.3593 97.3878,22.6833 C100.5598,22.7923 103.5648,22.6033 106.6968,22.2303 C111.7838,21.6243 116.0148,23.8723 119.2438,27.8793 C119.5348,28.2403 119.8058,28.6173 120.2508,29.2053" id="Fill-3" fill="#333333"></path>
            <path d="M83.2952,70.7273 C79.1382,70.7273 74.9812,70.7353 70.8232,70.7203 C70.0272,70.7173 69.2052,70.7333 68.4422,70.5453 C66.7742,70.1343 65.3822,69.2403 65.5032,67.3133 C65.6222,65.4213 67.0452,64.4133 68.7642,64.4383 C70.6142,64.4663 70.7432,63.6653 70.7272,62.1643 C70.6552,55.5303 70.6722,48.8943 70.7162,42.2583 C70.7252,40.9183 70.6872,40.0713 68.9012,40.0663 C66.9832,40.0623 65.3722,39.0363 65.5152,36.8523 C65.6522,34.7733 67.3212,33.7483 69.1792,33.7283 C78.2122,33.6323 87.2462,33.6983 96.2802,33.6823 C97.2242,33.6803 97.5272,34.0523 97.5122,34.9653 C97.4622,38.0823 97.5552,41.2043 97.4202,44.3163 C97.3382,46.1993 96.3522,47.5403 94.2482,47.4533 C92.2922,47.3723 91.5322,46.0673 91.3132,44.2823 C91.1492,42.9583 91.9392,41.0993 90.9172,40.4373 C89.8912,39.7733 88.1482,40.1913 86.7182,40.1823 C84.0002,40.1623 81.2792,40.2513 78.5652,40.1453 C77.1662,40.0913 76.7562,40.5853 76.8692,41.9083 C76.9702,43.0993 76.8902,44.3053 76.8902,45.5043 C76.8902,49.1593 76.8892,49.1113 80.6002,49.0613 C81.7532,49.0463 82.3092,48.8443 82.3822,47.5373 C82.4912,45.5933 83.5782,44.3803 85.6472,44.5353 C87.7592,44.6933 88.4212,46.1993 88.4502,48.0533 C88.4942,50.8503 88.4622,53.6493 88.4612,56.4473 C88.4602,58.4103 87.5622,59.7373 85.5552,59.8633 C83.6592,59.9813 82.5562,58.8363 82.3892,56.9853 C82.0912,53.6643 79.6242,55.6553 78.1952,55.3043 C76.4272,54.8713 76.9142,56.4473 76.9092,57.3523 C76.8952,59.5793 76.1252,62.5353 77.2442,63.8413 C78.5432,65.3573 81.5862,64.2253 83.8682,64.3153 C86.2622,64.4113 88.6662,64.2783 91.0612,64.3603 C92.3042,64.4033 92.8012,64.0313 92.6882,62.7433 C92.5972,61.7153 92.6362,60.6593 92.7582,59.6323 C92.9512,58.0053 93.8902,56.9783 95.5712,56.8963 C97.2362,56.8153 98.3712,57.6693 98.6282,59.3183 C99.1702,62.8103 98.8152,66.3363 98.8232,69.8463 C98.8262,71.0813 97.6842,70.7083 96.9662,70.7123 C92.4092,70.7403 87.8522,70.7273 83.2952,70.7273" id="Fill-5" fill="#FEFEFE"></path>
            <path d="M15.8731,57.8155 C21.8161,61.2635 27.7911,64.6575 33.6591,68.2285 C35.2141,69.1745 36.2891,69.0315 37.7581,68.1455 C43.7111,64.5595 49.7371,61.0935 55.7511,57.6105 C56.5431,57.1525 57.3411,56.3875 58.3831,57.0625 C59.7021,57.9165 59.5881,58.8395 58.7191,60.0555 C52.7761,68.3835 46.8911,76.7525 40.9841,85.1045 C39.7371,86.8665 38.4941,88.6305 37.2121,90.3655 C36.1281,91.8345 35.0901,91.7865 34.0191,90.2675 C26.8391,80.0735 19.6351,69.8975 12.4371,59.7165 C12.0221,59.1285 11.5081,58.5785 11.9931,57.7785 C12.3441,57.1995 12.8411,56.8505 13.5911,56.6355 C14.3251,57.0125 15.1201,57.3785 15.8731,57.8155 Z M37.4391,73.3107 C37.4531,76.5677 37.4451,79.8257 37.4451,83.0837 C37.6081,83.1257 37.7701,83.1667 37.9321,83.2087 C42.1551,77.2087 46.3781,71.2077 50.6011,65.2077 C50.4501,65.0677 50.2991,64.9287 50.1481,64.7897 C46.1731,67.0927 42.1981,69.3987 38.2191,71.6957 C37.5781,72.0647 37.4351,72.6247 37.4391,73.3107 Z M20.8255,65.4846 C25.0135,71.4276 29.2195,77.3946 33.8055,83.9026 C33.8055,80.0276 33.7595,76.7846 33.8295,73.5446 C33.8555,72.3866 33.2955,71.8516 32.3895,71.3396 C29.0605,69.4546 25.7705,67.5036 22.4565,65.5926 C22.0215,65.3426 21.6145,64.7496 20.8255,65.4846 Z M57.9689,51.8585 C51.0369,55.9905 44.1039,60.1245 37.1879,64.2855 C36.0219,64.9875 35.0029,64.9415 33.8419,64.2395 C27.0729,60.1435 20.2889,56.0745 13.4809,52.0435 C11.8719,51.0905 11.4749,50.1965 12.5569,48.4165 C19.3669,37.2175 26.0609,25.9485 32.7929,14.7015 C32.9569,14.4275 33.1049,14.1425 33.2699,13.8685 C35.0719,10.8925 36.2009,10.8785 37.9579,13.8165 C40.7489,18.4795 43.5359,23.1455 46.3249,27.8105 C50.4269,34.6705 54.5309,41.5285 58.6309,48.3885 C58.9529,48.9275 59.2469,49.4825 59.4969,49.9275 C59.2649,50.9275 58.6839,51.4325 57.9689,51.8585 Z M53.1683,46.2244 C47.8593,37.2884 42.9183,28.9754 37.9783,20.6624 C36.9843,20.6164 37.3243,21.3944 37.3163,21.8474 C37.2753,24.0864 37.2363,26.3284 37.3113,28.5654 C37.4263,31.9844 36.9553,35.4164 37.5613,38.8224 C42.5553,41.1904 47.5503,43.5594 53.1683,46.2244 Z M18.1179,46.2311 C23.6989,43.5811 28.6919,41.2111 33.6839,38.8401 C34.2109,32.9491 33.8069,27.0471 33.8939,21.1501 C33.8989,20.7751 33.6399,20.6071 33.2569,20.6831 C28.3289,28.9991 23.3999,37.3161 18.1179,46.2311 Z M37.555,42.8088 L37.555,60.0728 C43.015,56.7978 48.222,53.6758 53.814,50.3218 C48.159,47.7078 42.977,45.3138 37.555,42.8088 Z M18.0085,50.6921 C23.1225,53.7551 28.3115,56.8611 33.8055,60.1511 C33.8055,54.6741 33.7685,49.6411 33.8275,44.6091 C33.8455,43.1511 33.6135,42.7651 32.1315,43.4851 C27.7485,45.6141 23.2975,47.6001 18.8835,49.6641 C18.5055,49.8401 17.8685,49.8491 18.0085,50.6921 Z" id="Combined-Shape" fill="#7B8BCC"></path>
            <path d="M211.3055,46.5715 C213.1015,45.5285 214.8725,44.3395 216.7765,43.4265 C220.7655,41.5155 224.6355,42.1015 227.6395,44.9185 C229.0325,46.2235 229.9165,47.6585 228.5085,49.5025 C227.2775,51.1125 225.5745,51.3045 223.7285,49.7245 C222.1395,48.3635 220.6825,48.3055 218.9365,49.2695 C216.3325,50.7075 214.0485,52.5675 211.7445,54.4165 C211.1065,54.9285 210.9695,55.5375 210.9825,56.3025 C211.0185,58.3785 211.0965,60.4625 210.9625,62.5305 C210.8625,64.0785 211.4555,64.4265 212.8805,64.3665 C215.3525,64.2625 217.8335,64.2895 220.3065,64.3655 C222.2325,64.4245 223.8245,65.1105 223.9015,67.3675 C223.9795,69.6245 222.3905,70.5905 220.5225,70.6245 C213.8175,70.7445 207.1065,70.7395 200.4005,70.6185 C198.5025,70.5845 196.9405,69.5255 197.0355,67.3325 C197.1315,65.1335 198.7425,64.4705 200.6815,64.3435 C204.8655,64.0695 204.8655,64.0655 204.8655,59.8015 C204.8655,56.8455 204.8095,53.8885 204.8905,50.9355 C204.9265,49.6695 204.5155,49.1695 203.2575,49.3305 C202.7865,49.3895 202.2975,49.3515 201.8215,49.3065 C199.9535,49.1325 198.5815,48.3405 198.4595,46.2755 C198.3535,44.4925 199.7135,43.2535 201.9555,43.1605 C204.1885,43.0685 206.4355,43.2455 208.6615,43.0865 C210.4925,42.9545 211.3455,43.4605 211.0155,45.3995 C210.9575,45.7415 210.8025,46.1915 211.3055,46.5715" id="Fill-29" fill="#FEFEFE"></path>
            <path d="M141.7561,44.408 C145.3371,42.74 148.8001,41.789 152.5881,42.559 C157.9211,43.643 160.9831,47.069 161.1421,52.535 C161.2361,55.813 161.2141,59.096 161.1371,62.373 C161.1071,63.688 161.2691,64.419 162.8671,64.457 C164.4751,64.495 165.5111,65.533 165.6511,67.213 C165.8041,69.05 164.7351,70.201 163.1041,70.46 C159.7821,70.985 156.4031,70.942 153.0751,70.487 C151.4361,70.262 150.3141,69.137 150.4101,67.321 C150.5041,65.541 151.6091,64.475 153.3321,64.427 C154.7681,64.387 155.0211,63.803 154.9871,62.54 C154.9081,59.583 154.9941,56.621 154.9531,53.662 C154.9021,49.955 153.3451,48.497 149.6251,48.485 C146.3511,48.474 144.1481,50.4 142.0471,52.547 C141.6621,52.94 141.7571,53.436 141.7561,53.908 C141.7531,56.867 141.7961,59.828 141.7341,62.786 C141.7121,63.852 141.8991,64.375 143.1321,64.404 C145.0841,64.45 146.3511,65.534 146.3151,67.546 C146.2771,69.602 144.7551,70.517 142.9551,70.623 C140.1661,70.787 137.3541,70.803 134.5661,70.642 C132.7111,70.535 131.0651,69.753 131.0741,67.473 C131.0831,65.397 132.3771,64.444 134.3011,64.389 C135.4281,64.357 135.5721,63.85 135.5691,62.907 C135.5421,54.988 135.5301,47.068 135.5781,39.149 C135.5861,37.909 135.2311,37.458 133.9631,37.49 C131.9571,37.541 130.5101,36.705 130.4091,34.485 C130.3241,32.619 131.6521,31.499 134.1731,31.369 C136.1681,31.267 138.1751,31.408 140.1701,31.307 C141.4641,31.243 141.8011,31.735 141.7791,32.962 C141.7141,36.696 141.7561,40.432 141.7561,44.408" id="Fill-11" fill="#FEFEFE"></path>
            <path d="M170.6458,59.9802 C172.3108,63.6152 175.1658,64.8572 178.5568,65.2302 C182.1088,65.6222 185.5478,64.8782 188.9778,64.0722 C190.2948,63.7632 191.6228,63.4172 192.9628,63.3122 C194.5428,63.1882 195.4888,64.2012 195.9118,65.6212 C196.3048,66.9412 195.6668,67.9382 194.6158,68.7052 C194.4238,68.8442 194.2158,68.9852 193.9938,69.0602 C187.2498,71.3132 180.4238,73.0152 173.4068,70.4382 C168.0338,68.4652 164.6898,64.5692 163.9828,58.8022 C163.2928,53.1732 165.3008,48.5772 170.0388,45.3692 C175.9488,41.3672 182.1888,41.2032 188.3978,44.4952 C193.7958,47.3562 195.8708,52.2552 196.0268,58.1872 C196.0678,59.7512 195.5188,60.0232 194.1128,60.0102 C187.1628,59.9452 180.2108,59.9802 173.2598,59.9802 L170.6458,59.9802 Z M170.8719,53.5979 L188.9629,53.5979 C186.7649,49.9599 183.7249,48.4829 179.8819,48.4999 C176.0409,48.5169 172.9999,50.0089 170.8719,53.5979 Z" id="Combined-Shape" fill="#FEFEFE"></path>
            <path d="M446.053,42.2776 C454.491,42.2476 460.757,47.0886 462.632,54.4356 C463.613,58.2766 462.699,61.8006 460.481,64.8766 C456.755,70.0446 451.349,72.2096 445.214,71.5066 C438.632,70.7536 433.425,67.5726 431.405,60.6976 C429.718,54.9606 431.908,50.3366 435.909,46.4566 C438.896,43.5626 442.726,42.4346 446.053,42.2776 Z M446.5159,65.321 C451.5919,65.307 455.8899,62.295 456.5869,58.57 C457.3029,54.751 454.5929,50.467 450.5269,49.088 C448.5289,48.41 446.4859,48.281 444.3999,48.794 C440.1619,49.838 437.0329,53.524 437.1229,57.448 C437.2029,60.879 440.5249,64.325 444.5749,65.13 C445.3519,65.284 446.1599,65.288 446.5159,65.321 Z" id="Combined-Shape" fill="#FEFEFE"></path>
            <path d="M104.6858,56.9836 C104.6838,54.9836 104.6238,52.9816 104.7068,50.9846 C104.7568,49.7896 104.4758,49.1256 103.1458,49.3396 C103.0678,49.3526 102.9868,49.3436 102.9068,49.3406 C99.7528,49.2216 98.1028,48.0986 98.1778,46.1246 C98.2508,44.2326 99.8358,43.1136 102.8628,43.1656 C104.3788,43.1916 104.8338,42.7406 104.7108,41.2746 C104.5918,39.8446 104.6548,38.3956 104.7128,36.9576 C104.7908,34.9936 105.5038,33.4486 107.7688,33.4396 C110.0538,33.4306 110.7298,35.0476 110.8588,36.9596 C110.9598,38.4726 110.9578,40.0016 110.8718,41.5166 C110.8018,42.7476 111.1728,43.1896 112.4708,43.1526 C115.6678,43.0606 118.8698,43.1026 122.0698,43.1286 C125.0098,43.1516 126.3488,44.1136 126.3888,46.1536 C126.4308,48.2546 124.9898,49.3116 121.9648,49.3356 C118.8448,49.3596 115.7228,49.4076 112.6058,49.3106 C111.2418,49.2676 110.8258,49.6686 110.8618,51.0426 C110.9558,54.5596 110.9708,58.0836 110.8688,61.6006 C110.7958,64.0946 112.1128,65.0416 114.3298,65.2406 C117.8228,65.5526 121.1818,65.0596 124.3848,63.5886 C125.1798,63.2236 125.9808,62.8246 126.8228,62.6146 C128.2888,62.2486 129.2468,63.0916 129.9998,64.2216 C130.7948,65.4146 130.5068,66.4926 129.6008,67.4836 C129.4388,67.6606 129.2658,67.8276 129.0828,67.9826 C125.0658,71.3886 113.8328,72.6116 109.1548,70.1166 C106.3198,68.6046 104.7458,66.2476 104.6938,62.9836 C104.6618,60.9836 104.6878,58.9836 104.6858,56.9836" id="Fill-25" fill="#FEFEFE"></path>
            <path d="M360.2357,51.0886 C360.2357,47.2526 360.1837,43.4156 360.2617,39.5806 C360.2917,38.1156 359.9867,37.3596 358.3117,37.4346 C356.4357,37.5196 355.1627,36.3776 355.0647,34.5976 C354.9647,32.7706 356.2407,31.6206 358.0607,31.4876 C360.4437,31.3126 362.8427,31.3516 365.2347,31.2856 C366.4157,31.2536 366.4377,32.0436 366.4357,32.8936 C366.4277,35.9306 366.5027,38.9696 366.4087,42.0036 C366.3517,43.7976 366.5717,44.5126 368.5917,43.5636 C371.4677,42.2126 374.5407,41.9016 377.7087,42.6296 C382.8217,43.8046 385.8397,47.3906 385.9317,52.6696 C385.9877,55.8656 385.9687,59.0636 385.9287,62.2596 C385.9137,63.4756 385.9297,64.3486 387.5947,64.4336 C389.4377,64.5276 390.4717,65.7906 390.4067,67.6666 C390.3417,69.5106 389.0167,70.4396 387.4117,70.5306 C384.3847,70.7026 381.3387,70.6986 378.3097,70.5506 C376.5677,70.4646 375.2047,69.4256 375.1547,67.5406 C375.1057,65.6856 376.2707,64.4976 378.1047,64.4106 C379.5847,64.3396 379.7547,63.6476 379.7287,62.4416 C379.6697,59.6456 379.7177,56.8476 379.7077,54.0506 C379.6917,49.7146 377.4077,47.8236 373.0897,48.5546 C369.0207,49.2436 366.4337,52.2876 366.4337,56.3866 C366.4337,58.4646 366.4827,60.5446 366.4167,62.6196 C366.3787,63.7926 366.6977,64.3036 367.9857,64.4066 C369.8717,64.5586 371.1847,65.6236 371.0457,67.6746 C370.9067,69.7226 369.4117,70.5396 367.5697,70.5986 C364.7757,70.6886 361.9737,70.7006 359.1807,70.5896 C357.3367,70.5166 355.8957,69.6456 355.8077,67.5746 C355.7267,65.6536 356.8987,64.5246 358.6977,64.4096 C360.2547,64.3106 360.2537,63.4776 360.2457,62.3576 C360.2177,58.6016 360.2357,54.8446 360.2357,51.0886 Z M353.9232,48.0012 C353.9232,48.7202 353.9572,49.4412 353.9152,50.1582 C353.8352,51.5072 353.1282,52.4342 351.8162,52.7422 C350.4782,53.0562 349.3202,52.7392 348.4292,51.5542 C345.9992,48.3232 338.8062,47.3252 335.5632,49.7302 C334.3122,50.6582 334.4862,51.7462 336.2552,52.2092 C338.8702,52.8952 341.5752,53.2322 344.2442,53.7092 C346.6072,54.1302 348.9672,54.5672 351.0582,55.8412 C356.9642,59.4392 356.8912,66.0872 350.8412,69.3762 C345.5532,72.2522 340.0032,72.3352 334.3712,70.4792 C333.3172,70.1302 332.3252,69.5382 331.2562,70.4022 C331.1472,70.4902 330.9502,70.4782 330.7922,70.4962 C329.5762,70.6352 328.5972,70.2402 327.8832,69.2222 C326.7572,67.6142 326.7462,63.3812 327.8252,61.5872 C328.4812,60.4982 329.4852,60.0812 330.6512,60.1342 C331.5522,60.1752 332.4182,60.6062 332.7732,61.4912 C333.7022,63.8172 335.7162,64.5172 337.8652,64.9632 C340.8042,65.5732 343.7552,65.5092 346.6322,64.6212 C347.6672,64.3012 349.0062,63.9232 348.9892,62.5712 C348.9732,61.1702 347.7182,60.6752 346.5332,60.3142 C343.9962,59.5392 341.3492,59.4172 338.7472,59.0352 C336.8432,58.7542 334.9752,58.3602 333.2002,57.6002 C330.4872,56.4382 328.7642,54.4392 328.4882,51.4682 C328.2092,48.4492 329.6892,46.1992 332.1772,44.6842 C336.8392,41.8462 341.8342,41.6602 346.9642,43.1592 C348.1102,43.4942 349.1082,43.7892 350.4032,43.3252 C352.2522,42.6642 353.4592,43.7642 353.8592,45.6112 C354.0262,46.3822 353.9712,47.2022 354.0162,48.0002 C353.9852,48.0002 353.9542,48.0012 353.9232,48.0012 Z M321.2103,56.8943 C321.2103,58.8113 321.2673,60.7303 321.1893,62.6443 C321.1423,63.8353 321.4653,64.3393 322.7673,64.3703 C324.8023,64.4173 326.4843,65.2753 326.3823,67.6073 C326.2783,69.9513 324.5193,70.5353 322.4823,70.5383 C320.8853,70.5413 319.1433,70.9593 317.7183,70.4643 C313.7733,69.0933 310.3343,71.1623 306.6673,71.6043 C302.0943,72.1563 298.1173,70.9113 295.1413,67.2493 C292.7743,64.3383 293.0203,61.0963 295.6103,57.8773 C299.1683,53.4563 304.0533,52.4563 309.3343,52.4833 C310.6063,52.4903 311.8763,52.7483 313.1493,52.7813 C313.7263,52.7963 314.5143,53.3943 314.8713,52.6273 C315.2043,51.9133 315.1073,51.0513 314.6463,50.3303 C313.7163,48.8793 312.2083,48.6323 310.6753,48.5123 C307.8513,48.2903 305.1273,48.9523 302.3913,49.5113 C301.4593,49.7013 300.5063,49.9123 299.5643,49.9083 C297.9943,49.9003 297.0563,48.9723 296.7673,47.4613 C296.4953,46.0383 296.9953,44.7903 298.3613,44.3283 C303.8733,42.4653 309.4813,41.2713 315.2193,43.2863 C319.2213,44.6923 321.1683,47.6023 321.2073,51.8623 C321.2233,53.5403 321.2103,55.2173 321.2103,56.8943 Z M304.9109,65.3318 C308.2239,65.3198 311.1079,64.2438 313.9169,62.8458 C314.9939,62.3098 315.0319,61.4478 315.0119,60.4488 C314.9949,59.6038 314.4749,59.3218 313.8149,59.2418 C310.5039,58.8418 307.1539,58.1658 303.9239,59.5078 C302.2149,60.2168 299.7809,60.8898 300.2349,63.2128 C300.6839,65.5088 303.1459,65.2058 304.9109,65.3318 Z M278.095,46.6482 C280.753,45.1382 283.088,43.1692 286.14,42.5332 C289.847,41.7612 292.694,43.1262 295.156,45.6982 C296.456,47.0572 296.231,48.4622 295.056,49.7452 C293.937,50.9672 292.376,51.3672 291.218,50.1992 C288.53,47.4922 286.177,48.8632 283.751,50.4262 C277.903,54.1942 277.128,55.9512 277.855,62.9852 C277.988,64.2722 278.632,64.3382 279.589,64.3312 C281.986,64.3132 284.385,64.2922 286.781,64.3382 C289.24,64.3872 290.63,65.4742 290.713,67.3052 C290.8,69.2342 289.348,70.5952 286.842,70.6202 C280.449,70.6842 274.055,70.6852 267.662,70.6182 C265.211,70.5922 263.656,69.1422 263.758,67.2922 C263.856,65.5182 265.328,64.4232 267.745,64.3292 C271.676,64.1762 271.676,64.1762 271.676,60.1812 C271.676,57.3042 271.6,54.4242 271.706,51.5512 C271.764,49.9712 271.422,49.0832 269.634,49.3392 C269.17,49.4062 268.674,49.3342 268.204,49.2532 C266.434,48.9482 265.146,48.0222 265.246,46.1052 C265.344,44.2242 266.667,43.2892 268.462,43.1862 C270.295,43.0822 272.137,43.1362 273.974,43.1342 C277.662,43.1282 277.662,43.1322 278.095,46.6482 Z M236.6653,52.9168 C236.1303,57.8988 237.6843,62.0938 242.5823,63.9978 C247.7613,66.0108 253.0313,66.3468 257.5773,62.0818 C259.4973,60.2808 261.0113,60.1598 262.4003,61.5478 C263.8233,62.9698 263.7763,64.8008 261.9623,66.6248 C257.6023,71.0098 252.0563,71.9978 246.2433,71.3638 C239.1243,70.5888 233.5143,67.1948 231.2883,60.0808 C228.8473,52.2778 229.4713,44.6368 235.1453,38.2528 C239.6493,33.1858 247.3403,30.9248 255.1123,34.6818 C256.0323,35.1258 256.6123,35.3348 257.6163,34.6028 C259.6183,33.1428 261.7753,34.1448 262.2333,36.6308 C262.7443,39.4008 262.6243,42.1988 262.2073,44.9788 C261.9853,46.4488 261.0243,47.2348 259.6293,47.4088 C258.1913,47.5868 257.1913,46.8918 256.6173,45.5548 C254.3963,40.3858 250.8773,38.4568 245.3663,39.3718 C240.8253,40.1248 237.0003,44.4508 236.6773,49.2598 C236.5973,50.4538 236.6653,51.6568 236.6653,52.9168 Z" id="Combined-Shape" fill="#7B8BCC"></path>
            <path d="M418.265,70.7268 C414.909,70.7268 411.551,70.7188 408.194,70.7308 C406.957,70.7358 405.789,70.4868 404.819,69.7158 C403.846,68.9458 403.583,67.8368 403.877,66.6828 C404.266,65.1608 405.465,64.4768 406.913,64.4058 C409.146,64.2968 411.391,64.2678 413.623,64.3678 C414.997,64.4298 415.387,63.9958 415.356,62.6318 C415.267,58.7168 415.27,54.7978 415.355,50.8828 C415.384,49.5608 414.907,49.2568 413.702,49.3168 C412.189,49.3928 410.653,49.4148 409.154,49.2338 C407.379,49.0188 406.156,48.0178 406.244,46.0658 C406.327,44.2528 407.523,43.2708 409.214,43.2148 C412.967,43.0918 416.726,43.1538 420.482,43.1178 C422.037,43.1028 421.506,44.2618 421.511,45.0008 C421.546,50.8358 421.584,56.6728 421.494,62.5068 C421.47,63.9908 421.857,64.4658 423.35,64.3698 C425.339,64.2408 427.345,64.3098 429.342,64.3538 C431.286,64.3978 432.824,65.1208 433.114,67.2608 C433.346,68.9778 431.793,70.4868 429.533,70.6588 C427.624,70.8038 425.699,70.7188 423.781,70.7258 C421.943,70.7318 420.104,70.7268 418.265,70.7268" id="Fill-31" fill="#FEFEFE"></path>
            <path d="M392.4319,67.4241 C392.4379,65.1621 394.8589,62.9381 397.2199,63.0261 C399.5959,63.1131 401.7629,65.2001 401.7779,67.4131 C401.7929,69.7621 399.5209,71.8221 396.9929,71.7531 C394.5359,71.6851 392.4249,69.6821 392.4319,67.4241" id="Fill-33" fill="#FDFDFD"></path>
            <path d="M416.9075,31.3289 C420.6645,31.3289 420.4255,31.3489 420.7405,35.1059 C420.9865,38.0379 419.5795,38.0329 417.4295,37.9629 C413.3215,37.8309 413.3185,37.9249 413.3215,34.0719 C413.3235,31.3289 413.3235,31.3289 416.9075,31.3289" id="Fill-35" fill="#FCFCFC"></path>
            <path d="M33.6839,38.8401 C33.6819,33.5311 33.6929,28.2211 33.6599,22.9121 C33.6549,22.1651 33.9919,21.3141 33.2569,20.6821 C33.6929,20.0381 34.1209,20.2331 34.1209,20.8591 C34.1169,26.7391 34.0559,32.6201 33.9949,38.5001 C33.9939,38.6141 33.7919,38.7271 33.6839,38.8401" id="Fill-45" fill="#565E7F"></path>
            <path d="M37.9783,20.6624 C37.2403,21.2914 37.5763,22.1434 37.5713,22.8914 C37.5423,28.2014 37.5593,33.5114 37.5613,38.8224 C37.0913,38.5184 37.0813,38.0374 37.0813,37.5574 C37.0793,32.2344 37.0673,26.9114 37.0973,21.5884 C37.1003,21.1374 36.6693,19.9894 37.9783,20.6624" id="Fill-47" fill="#586182"></path>
        </g>
    </g>
</svg>